<?xml version="1.0" standalone="no"?>
<!DOCTYPE svg PUBLIC "-//W3C//DTD SVG 20010904//EN"
 "http://www.w3.org/TR/2001/REC-SVG-20010904/DTD/svg10.dtd">
<svg version="1.0" xmlns="http://www.w3.org/2000/svg"
 width="16.000000pt" height="16.000000pt" viewBox="0 0 16.000000 16.000000"
 preserveAspectRatio="xMidYMid meet">
<metadata>
Created by potrace 1.11, written by Peter Selinger 2001-2013
</metadata>
<g transform="translate(0.000000,16.000000) scale(0.003837,-0.003837)"
fill="#000000" stroke="none">
<path d="M2078 4107 c12 -14 8 -19 -27 -41 -22 -14 -44 -26 -49 -26 -4 0 -14
-6 -20 -12 -7 -7 -41 -29 -76 -48 -56 -30 -212 -120 -325 -186 -20 -12 -225
-130 -456 -264 -231 -133 -456 -263 -500 -289 -44 -26 -123 -72 -175 -101
l-96 -54 1 -1000 c0 -996 0 -1001 -20 -998 -18 4 -17 2 5 -20 14 -13 30 -24
36 -24 8 -1 220 -117 309 -171 11 -6 34 -19 50 -27 17 -8 53 -28 80 -45 28
-16 66 -38 86 -49 57 -32 548 -310 619 -352 36 -21 83 -48 105 -60 173 -97
435 -247 457 -262 21 -14 31 -16 40 -8 7 6 155 92 328 192 173 99 391 224 483
277 92 53 182 104 199 114 511 297 711 408 719 395 7 -10 9 -9 9 5 0 10 7 20
15 23 18 7 20 25 3 21 -10 -1 -13 203 -14 996 l0 998 -110 63 c-60 34 -233
134 -384 221 -151 87 -288 166 -305 175 -16 10 -131 76 -255 147 -124 71 -326
187 -450 258 -124 70 -227 130 -229 131 -2 2 2 10 9 19 14 17 0 21 -17 4 -8
-8 -17 -7 -34 2 -22 11 -23 11 -11 -4z"/>
</g>
</svg>
